<svg width="21" height="20" viewBox="0 0 21 20" fill="none" xmlns="http://www.w3.org/2000/svg">
    <path d="M15.887 12.6789L16.4502 13.2379L17.8877 14.68L18.7108 15.5104L18.9271 15.728C18.9684 15.7692 19.0152 15.8094 19.0505 15.8556L18.9326 15.8585L18.3637 15.8596L15.8013 13.3337L15.9327 13.3301L15.887 12.6789Z"
          fill="white" fill-opacity="0.8"/>
    <path d="M5.0578 12.7289C5.06018 12.7916 5.05069 12.8577 5.04586 12.9204L5.00873 13.3397L5.20211 13.3392L4.56739 13.9689L3.21897 15.2944L2.76893 15.7431C2.74848 15.7636 2.68449 15.8422 2.66129 15.8505C2.63871 15.8586 2.5726 15.8506 2.54633 15.8506L2.13574 15.8509L1.91397 15.85L5.0578 12.7289Z"
          fill="white" fill-opacity="0.8"/>
    <path d="M9.55458 14.5774L9.87246 14.9323L5.44003 19.3534L5.27568 19.5185L5.2763 18.9484C5.27611 18.9208 5.26533 18.8223 5.27525 18.8012C5.28611 18.7781 5.35673 18.7267 5.37845 18.7048L6.11423 17.9735L7.78529 16.3112L8.84113 15.2792L9.55458 14.5774Z"
          fill="white" fill-opacity="0.8"/>
    <path d="M11.4373 14.5643L12.6729 15.7857L14.7959 17.887C14.8944 17.9839 15.6959 18.7504 15.7082 18.7902C15.7212 18.8319 15.7074 18.9339 15.7072 18.9811L15.7129 19.5044L15.5523 19.3452L11.0859 14.917L11.4373 14.5643Z"
          fill="white" fill-opacity="0.8"/>
    <path d="M14.6036 13.3349L15.573 13.3381L18.1051 15.8614L15.7058 15.8599L15.705 18.5508L14.9446 17.7991L11.5652 14.4391L11.805 14.2001C11.8473 14.2121 11.8918 14.2454 11.9295 14.268L12.1596 14.4034L13.3664 15.0707L14.0102 13.343C14.0705 13.3314 14.1408 13.3379 14.2022 13.3375L14.6036 13.3349Z"
          fill="white" fill-opacity="0.8"/>
    <path d="M6.58224 13.3252L6.96854 13.3281L7.65108 15.0043L9.27909 14.2525L9.4277 14.4264C9.32108 14.5589 9.17989 14.6743 9.05956 14.7958L8.32573 15.5373L7.11046 16.7614L5.87778 17.9842L5.27493 18.5836L5.2677 15.8501L2.88278 15.851L3.43251 15.3085L4.79198 13.9714L5.32786 13.4427C5.36044 13.4117 5.40847 13.3511 5.44583 13.3318C5.45866 13.3251 5.50034 13.3282 5.51518 13.3282L5.70931 13.3283L6.58224 13.3252Z"
          fill="white" fill-opacity="0.8"/>
    <path d="M10.4988 0.628448L11.6824 2.16442L13.275 1.27651L13.8534 3.01967L15.7264 2.86981L15.4906 4.69834L17.288 5.19127C17.2661 5.25563 17.2252 5.31717 17.1925 5.377L17.0298 5.6818L16.4081 6.86078L17.8728 8.00205L16.3895 9.16551L17.3157 10.8442L15.5461 11.2936L15.6689 13.0634L13.8271 13.0578L13.2545 14.7057L11.7668 13.8845L10.4881 15.1904L9.79071 14.4156L9.51929 14.1062C9.46804 14.0479 9.41722 13.978 9.35835 13.9277L7.80143 14.6304C7.76077 14.4684 7.67435 14.3008 7.61103 14.1451L7.15481 13.0468L5.32013 13.0505L5.46286 11.3008L3.70729 10.8342L4.57251 9.1653L3.10815 8.01303L4.26128 7.11018L4.4905 6.92809C4.52599 6.90012 4.57388 6.87059 4.60122 6.83549L3.65267 5.20858L5.46296 4.68866L5.25569 2.83965L7.13565 3.11866L7.69454 1.27156L9.31981 2.16723L10.4988 0.628448Z"
          fill="white" fill-opacity="0.8"/>
    <path d="M10.2712 2.72873L10.2815 2.72777C10.6441 2.70541 11.0121 2.74087 11.3691 2.80134C12.0173 2.91113 12.6677 3.13554 13.2375 3.46671C13.5299 3.63667 13.7994 3.83908 14.0547 4.06023C14.8336 4.73513 15.4014 5.64679 15.6744 6.6391C15.7563 6.9366 15.8184 7.24542 15.8384 7.55371C15.8676 8.00105 15.8514 8.4546 15.7736 8.89648C15.6014 9.87394 15.1401 10.7974 14.4836 11.5397C13.6998 12.426 12.5965 13.0156 11.4375 13.2293C11.2088 13.2715 10.9784 13.2923 10.7466 13.3067C9.41409 13.3916 8.01129 12.8887 7.0026 12.0233C5.98024 11.1461 5.27585 9.81785 5.17618 8.47039C5.13336 7.89148 5.17032 7.30789 5.30823 6.74314C5.4986 5.96355 5.88379 5.22707 6.40825 4.62148C7.17704 3.73378 8.21772 3.09394 9.36989 2.84525C9.66795 2.78091 9.96768 2.75031 10.2712 2.72873Z"
          fill="#13131A"/>
    <path d="M10.3302 3.01224C10.519 3.00857 10.7082 3.00595 10.8966 3.0214C11.9962 3.11152 13.0539 3.55253 13.8794 4.28562C14.8249 5.12533 15.4794 6.35523 15.5529 7.62695C15.5779 8.05941 15.5606 8.50421 15.4804 8.93066C15.3117 9.82738 14.8678 10.6819 14.2603 11.3592C13.6589 12.03 12.8711 12.5429 12.0085 12.807C11.5744 12.9399 11.1306 13.0068 10.6782 13.032L10.6396 13.034C10.4013 13.0434 10.1617 13.0263 9.92494 12.9995C8.87361 12.8803 7.84473 12.4342 7.06912 11.7082C6.4077 11.089 5.90272 10.3077 5.64643 9.43517C5.52078 9.00744 5.4582 8.5547 5.4442 8.10951C5.40313 6.80412 5.92051 5.53836 6.81061 4.59437C7.72311 3.62664 9.00088 3.05218 10.3302 3.01224Z"
          fill="white" fill-opacity="0.8"/>
    <path d="M10.2318 3.29505L10.2364 3.29432C10.4615 3.27764 10.6954 3.28852 10.9199 3.30829C11.9267 3.3969 12.9198 3.80715 13.6755 4.48227C14.6246 5.33012 15.2075 6.46737 15.2784 7.74516C15.3483 9.00454 14.8904 10.241 14.0496 11.176C13.2151 12.1038 12.0219 12.6794 10.7761 12.7458L10.7528 12.7479C9.55726 12.8331 8.29173 12.3917 7.3846 11.6137C6.42384 10.7898 5.83593 9.61454 5.74062 8.35458C5.6463 7.1076 6.05824 5.88591 6.87267 4.93952C7.54078 4.16317 8.47757 3.60674 9.47951 3.39182C9.72685 3.33878 9.97992 3.31419 10.2318 3.29505Z"
          fill="#13131A"/>
    <path d="M10.2336 3.97876L10.2394 3.97769C11.2708 3.89423 12.3296 4.26863 13.121 4.92222C13.9348 5.59439 14.4715 6.58769 14.5696 7.64037C14.6683 8.69978 14.3238 9.77079 13.6456 10.5882C13.0572 11.2973 12.2705 11.7874 11.37 11.9904C11.1757 12.0343 10.9771 12.0577 10.7789 12.0761L10.7673 12.0778C9.68567 12.1698 8.59891 11.748 7.78559 11.0495C7.60073 10.8907 7.44108 10.7087 7.29096 10.5173C6.7859 9.87341 6.48833 9.1313 6.42608 8.31326C6.34573 7.25714 6.68549 6.2106 7.37405 5.40611C8.10387 4.55339 9.11803 4.0662 10.2336 3.97876Z"
          fill="white" fill-opacity="0.8"/>
    <path d="M10.4636 4.77057L11.3936 4.76842L11.3918 9.9632L12.2092 9.96957L12.2109 10.3405C12.2111 10.393 12.2196 10.4626 12.207 10.513L9.79044 10.5096L9.31094 10.5142C9.27071 10.5147 9.18884 10.527 9.15233 10.5164C9.14612 10.5146 9.14118 10.5099 9.13559 10.5066L9.13288 10.4517L9.13278 9.96336L10.0027 9.96344L10.0023 6.34668L9.27206 6.84715L8.63104 6.01096L10.4636 4.77057Z"
          fill="#13131A"/>
</svg>
