<svg width="71" height="71" viewBox="0 0 71 71" fill="none"
  xmlns="http://www.w3.org/2000/svg">
  <path d="M35.5 70.8789C30.6719 70.8789 26.125 69.9531 21.8594 68.1016C17.6172 66.2734 13.8672 63.7422 10.6094 60.5078C7.375 57.25 4.83203 53.5 2.98047 49.2578C1.15234 44.9922 0.238281 40.4453 0.238281 35.6172C0.238281 30.7891 1.15234 26.2539 2.98047 22.0117C4.83203 17.7461 7.375 13.9961 10.6094 10.7617C13.8438 7.50391 17.582 4.96094 21.8242 3.13281C26.0898 1.28125 30.6367 0.355469 35.4648 0.355469C40.293 0.355469 44.8398 1.28125 49.1055 3.13281C53.3711 4.96094 57.1211 7.50391 60.3555 10.7617C63.5898 13.9961 66.1328 17.7461 67.9844 22.0117C69.8359 26.2539 70.7617 30.7891 70.7617 35.6172C70.7617 40.4453 69.8359 44.9922 67.9844 49.2578C66.1328 53.5 63.5898 57.25 60.3555 60.5078C57.1211 63.7422 53.3711 66.2734 49.1055 68.1016C44.8633 69.9531 40.3281 70.8789 35.5 70.8789ZM35.5 66.3438C39.7422 66.3438 43.7148 65.5469 47.418 63.9531C51.1445 62.3594 54.4141 60.1562 57.2266 57.3438C60.0625 54.5312 62.2656 51.2734 63.8359 47.5703C65.4297 43.8438 66.2266 39.8594 66.2266 35.6172C66.2266 31.375 65.4297 27.4023 63.8359 23.6992C62.2422 19.9727 60.0391 16.7031 57.2266 13.8906C54.4141 11.0547 51.1445 8.85156 47.418 7.28125C43.7148 5.6875 39.7305 4.89062 35.4648 4.89062C31.2227 4.89062 27.2383 5.6875 23.5117 7.28125C19.8086 8.85156 16.5508 11.0547 13.7383 13.8906C10.9492 16.7031 8.75781 19.9727 7.16406 23.6992C5.59375 27.4023 4.80859 31.375 4.80859 35.6172C4.80859 39.8594 5.59375 43.8438 7.16406 47.5703C8.75781 51.2734 10.9609 54.5312 13.7734 57.3438C16.5859 60.1562 19.8438 62.3594 23.5469 63.9531C27.25 65.5469 31.2344 66.3438 35.5 66.3438ZM35.2188 56.2188C32.4766 56.2188 29.9219 55.7383 27.5547 54.7773C25.2109 53.8164 23.1602 52.4805 21.4023 50.7695C19.668 49.0586 18.3086 47.0547 17.3242 44.7578C16.3398 42.4375 15.8477 39.9062 15.8477 37.1641C15.8477 34.5391 16.3281 31.9961 17.2891 29.5352C18.25 27.0742 19.5859 24.918 21.2969 23.0664C23.0312 21.1914 25.0703 19.8203 27.4141 18.9531C28.0703 18.6953 28.5742 18.7422 28.9258 19.0938C29.2773 19.4219 29.3242 19.8789 29.0664 20.4648C28.7617 21.3555 28.4922 22.4102 28.2578 23.6289C28.0234 24.8477 27.9062 26.0898 27.9062 27.3555C27.9062 30.7773 28.6211 33.7656 30.0508 36.3203C31.4805 38.875 33.4727 40.8555 36.0273 42.2617C38.582 43.668 41.5586 44.3711 44.957 44.3711C46.2227 44.3711 47.4414 44.2656 48.6133 44.0547C49.8086 43.8438 50.7578 43.5977 51.4609 43.3164C52.0469 43.1055 52.4922 43.1992 52.7969 43.5977C53.125 43.9727 53.1602 44.4531 52.9023 45.0391C52.1289 47.1484 50.8516 49.0469 49.0703 50.7344C47.3125 52.3984 45.2266 53.7344 42.8125 54.7422C40.4219 55.7266 37.8906 56.2188 35.2188 56.2188ZM45.2383 32.7344C44.9102 32.7344 44.7227 32.5469 44.6758 32.1719C44.4648 30.625 44.2422 29.418 44.0078 28.5508C43.7969 27.6602 43.457 26.9922 42.9883 26.5469C42.543 26.1016 41.8516 25.75 40.9141 25.4922C40 25.2109 38.7227 24.918 37.082 24.6133C36.6836 24.543 36.4844 24.332 36.4844 23.9805C36.4844 23.6055 36.6836 23.3945 37.082 23.3477C38.7227 23.0898 39.9883 22.832 40.8789 22.5742C41.7695 22.3164 42.4375 21.9531 42.8828 21.4844C43.3516 21.0156 43.6914 20.3359 43.9023 19.4453C44.1367 18.5312 44.3945 17.3125 44.6758 15.7891C44.7227 15.4141 44.9102 15.2266 45.2383 15.2266C45.5898 15.2266 45.7891 15.4141 45.8359 15.7891C46.1172 17.3125 46.375 18.5078 46.6094 19.375C46.8438 20.2422 47.1836 20.9102 47.6289 21.3789C48.0977 21.8477 48.7773 22.2227 49.668 22.5039C50.582 22.7617 51.8359 23.043 53.4297 23.3477C53.8281 23.3945 54.0273 23.6055 54.0273 23.9805C54.0273 24.3555 53.8047 24.5664 53.3594 24.6133C51.7656 24.8477 50.5 25.0938 49.5625 25.3516C48.6484 25.5859 47.957 25.9375 47.4883 26.4062C47.0195 26.875 46.668 27.5664 46.4336 28.4805C46.2227 29.3711 46.0234 30.6016 45.8359 32.1719C45.7891 32.5469 45.5898 32.7344 45.2383 32.7344Z" fill="white"/>
</svg>
