<svg width="162" height="16" viewBox="0 0 162 16" fill="none" xmlns="http://www.w3.org/2000/svg">
<path d="M15.7235 15L13.4035 10.86H3.50352L1.20352 15H0.0435157L7.88352 0.999999H9.04352L16.8835 15H15.7235ZM4.02352 9.9H12.8835L8.44352 1.96L4.02352 9.9ZM45.0277 7.32C49.2077 7.68 52.0877 8.48 52.0877 11.1C52.0877 13.54 49.5677 15.42 44.9877 15.42C41.7477 15.42 38.8477 14.4 37.0277 12.42L37.7877 11.68C39.5077 13.58 42.0477 14.44 45.0277 14.44C48.8877 14.44 51.0277 13.06 51.0277 11.16C51.0277 9.22 48.6877 8.68 44.6677 8.3C41.0477 7.96 37.5277 7.2 37.5277 4.56C37.5277 2 40.8877 0.58 44.4877 0.58C47.5277 0.58 49.8877 1.56 51.3477 3.04L50.5277 3.72C49.1277 2.22 47.0077 1.58 44.5277 1.56C41.8277 1.54 38.6077 2.48 38.6077 4.54C38.6077 6.48 41.5277 7 45.0277 7.32ZM86.9832 0.999999V1.94H80.1432V15H79.1032V1.94H72.2832V0.999999H86.9832ZM123.806 15H122.446L117.546 9.38H110.046V15H108.986V0.999999H118.166C121.286 0.999999 123.366 2.56 123.366 5.18C123.366 7.64 121.566 9.16 118.826 9.36L123.806 15ZM110.026 8.42H118.106C120.686 8.42 122.306 7.28 122.306 5.18C122.306 3.1 120.686 1.96 118.106 1.96H110.026V8.42ZM153.645 15.42C148.385 15.42 145.285 12.52 145.285 8C145.285 3.48 148.385 0.58 153.645 0.58C158.905 0.58 162.005 3.48 162.005 8C162.005 12.52 158.905 15.42 153.645 15.42ZM153.645 14.44C158.045 14.44 160.925 12.1 160.925 8C160.925 3.9 158.045 1.56 153.645 1.56C149.225 1.56 146.345 3.9 146.345 8C146.345 12.1 149.225 14.44 153.645 14.44Z" fill="white"/>
</svg>
