<svg width="261" height="12" viewBox="0 0 261 12" fill="none" xmlns="http://www.w3.org/2000/svg">
<path d="M0.416 0.0799999H3.568L3.872 0.272C4.416 0.64 5.68 1.504 6.96 2.336L10.336 4.608L17.072 0.0640001H20.224L20.288 0.0799999C17.728 1.808 17.344 2.064 11.952 5.664C17.408 9.312 17.84 9.68 20.272 11.28H17.12C14.688 9.664 13.872 9.104 10.368 6.752C10.112 6.928 7.184 8.88 5.264 10.16L3.584 11.28H0.432C4.608 8.464 5.344 7.968 5.728 7.712L6 7.536C6.272 7.344 6.768 7.008 8.752 5.664C3.36 2.064 2.976 1.808 0.416 0.0799999Z" fill="white"/>
<path d="M43.3235 11.232V9.488H59.8675C60.7315 9.488 61.4195 8.816 61.4195 8C61.4195 7.168 60.7315 6.528 59.8995 6.528H46.6835C45.0195 6.528 43.3395 5.168 43.3395 3.328V3.264C43.3395 1.472 44.9395 0.0640001 46.7155 0.0640001H63.2595V1.824H46.7155C46.6835 1.824 46.6515 1.824 46.6195 1.824C45.8675 1.824 45.1475 2.416 45.1475 3.264C45.1475 4.08 45.8355 4.752 46.6995 4.752H59.8835C61.5955 4.752 63.2595 6.192 63.2595 7.984C63.2595 9.76 61.7395 11.232 59.8675 11.232H43.3235Z" fill="white"/>
<path d="M95.3341 6.128L86.2941 0.0640001H89.4941L96.2301 4.608L103.014 0.0640001H106.15L97.1581 6.128V11.264H95.3341V6.128Z" fill="white"/>
<path d="M126.514 5.648C126.514 2.512 129.266 0.0640001 132.386 0.0640001H146.482V1.824H132.386C132.354 1.824 132.322 1.824 132.29 1.824C130.546 1.824 128.882 3.088 128.482 4.832L128.434 5.056C128.386 5.232 128.37 5.408 128.354 5.648C128.354 7.648 130.098 9.504 132.402 9.504H146.498V11.248H132.402C129.234 11.248 126.514 8.784 126.514 5.648Z" fill="white"/>
<path d="M170.175 3.056C170.175 1.392 171.599 0.0640001 173.327 0.0640001H186.975C188.703 0.0640001 190.127 1.392 190.127 3.056V8.304C190.127 9.968 188.703 11.296 186.975 11.296H173.327C171.599 11.296 170.175 9.968 170.175 8.304V3.056ZM171.967 8.288C171.967 8.928 172.559 9.52 173.311 9.52H186.959C187.711 9.52 188.303 8.928 188.303 8.288V3.04C188.303 2.384 187.711 1.824 186.959 1.824H173.311C172.559 1.824 171.967 2.384 171.967 3.04V8.288Z" fill="white"/>
<path d="M216.29 11.264H214.45V0.0640001H216.29V11.264Z" fill="white"/>
<path d="M240.616 11.184V0L258.76 8.464V0.0640001H260.584V11.264L260.52 11.232C260.12 11.072 257.704 9.888 242.456 2.784V11.184H240.616Z" fill="white"/>
</svg>
