<svg width="225" height="224" viewBox="0 0 225 224" fill="none" xmlns="http://www.w3.org/2000/svg">
<rect x="23.5523" y="20.2523" width="183.495" height="183.495" rx="91.7477" fill="url(#paint0_linear_321_51913)"/>
<rect x="23.5523" y="20.2523" width="183.495" height="183.495" rx="91.7477" fill="url(#paint1_linear_321_51913)"/>
<rect x="23.5523" y="20.2523" width="183.495" height="183.495" rx="91.7477" stroke="white" stroke-width="15.4954"/>
<path d="M74.2242 101.665L92.3436 101.665" stroke="black" stroke-width="7.53013" stroke-linecap="round"/>
<path d="M74.3644 121.933L94.2286 121.933" stroke="black" stroke-width="7.53013" stroke-linecap="round"/>
<path d="M85.8998 141.932L101.603 141.932" stroke="black" stroke-width="7.53013" stroke-linecap="round"/>
<path d="M85.8998 81.668L101.066 81.668" stroke="black" stroke-width="7.53013" stroke-linecap="round"/>
<path d="M129.93 81.6667L144.828 81.6667" stroke="black" stroke-width="7.53013" stroke-linecap="round"/>
<path d="M129.93 81.6667L94.228 121.932" stroke="black" stroke-width="7.52999" stroke-linecap="round"/>
<path d="M137.303 101.662L101.601 141.927" stroke="black" stroke-width="7.52999" stroke-linecap="round"/>
<path d="M137.303 121.803L101.064 81.6722" stroke="black" stroke-width="7.53017" stroke-linecap="round"/>
<path d="M129.927 142.333L103.083 111.999" stroke="black" stroke-width="7.53017" stroke-linecap="round"/>
<path d="M129.927 142.333L103.083 111.999" stroke="black" stroke-width="7.53017" stroke-linecap="round"/>
<path d="M129.927 142.333L144.825 142.333" stroke="black" stroke-width="7.53013" stroke-linecap="round"/>
<path d="M137.303 121.932L156.362 121.932" stroke="black" stroke-width="7.53013" stroke-linecap="round"/>
<path d="M137.303 101.662L156.362 101.662" stroke="black" stroke-width="7.53013" stroke-linecap="round"/>
<defs>
<linearGradient id="paint0_linear_321_51913" x1="118.3" y1="148" x2="13.3001" y2="-38" gradientUnits="userSpaceOnUse">
<stop offset="0.09" stop-color="#3355E7"/>
<stop offset="1" stop-color="#102478"/>
</linearGradient>
<linearGradient id="paint1_linear_321_51913" x1="199.3" y1="196" x2="76.0999" y2="44.8" gradientUnits="userSpaceOnUse">
<stop stop-color="white"/>
<stop offset="1" stop-color="#9A9A9A"/>
</linearGradient>
</defs>
</svg>
