<svg width="27" height="27" viewBox="0 0 27 27" fill="none" xmlns="http://www.w3.org/2000/svg">
<path fill-rule="evenodd" clip-rule="evenodd" d="M13.5 26.625C20.7487 26.625 26.625 20.7487 26.625 13.5C26.625 6.25126 20.7487 0.375 13.5 0.375C6.25126 0.375 0.375 6.25126 0.375 13.5C0.375 20.7487 6.25126 26.625 13.5 26.625ZM20.4537 10.0586C20.9693 9.43987 20.8857 8.52029 20.2669 8.00468C19.6482 7.48906 18.7286 7.57266 18.213 8.1914L12.966 14.4878C12.4604 15.0946 12.1761 15.4305 11.9492 15.6369L11.9405 15.6448L11.9312 15.6377C11.6865 15.4527 11.373 15.1439 10.8145 14.5854L8.69786 12.4688C8.12835 11.8993 7.20499 11.8993 6.63547 12.4688C6.06596 13.0383 6.06596 13.9617 6.63547 14.5312L8.75208 16.6478L8.8116 16.7073L8.81163 16.7074C9.28777 17.1837 9.74581 17.6419 10.172 17.9642C10.6494 18.3252 11.2746 18.6646 12.0758 18.6283C12.8771 18.5919 13.469 18.1973 13.9117 17.7945C14.307 17.435 14.7217 16.9372 15.1527 16.4197L15.2066 16.355L20.4537 10.0586Z" fill="#EDDF23"/>
</svg>
