<svg width="27" height="27" viewBox="0 0 27 27" fill="none" xmlns="http://www.w3.org/2000/svg">
<path fill-rule="evenodd" clip-rule="evenodd" d="M13.5 26.625C20.7487 26.625 26.625 20.7487 26.625 13.5C26.625 6.25126 20.7487 0.375 13.5 0.375C6.25126 0.375 0.375 6.25126 0.375 13.5C0.375 20.7487 6.25126 26.625 13.5 26.625ZM15.7096 17.1238C16.1001 17.5143 16.7332 17.5143 17.1238 17.1238C17.5143 16.7332 17.5143 16.1001 17.1238 15.7096L14.9142 13.5L17.1238 11.2904C17.5143 10.8999 17.5143 10.2668 17.1238 9.87623C16.7332 9.4857 16.1001 9.4857 15.7096 9.87623L13.5 12.0858L11.2904 9.87623C10.8999 9.4857 10.2668 9.4857 9.87623 9.87623C9.4857 10.2668 9.4857 10.8999 9.87623 11.2904L12.0858 13.5L9.87623 15.7096C9.4857 16.1001 9.4857 16.7332 9.87623 17.1238C10.2668 17.5143 10.8999 17.5143 11.2904 17.1238L13.5 14.9142L15.7096 17.1238ZM17.2312 4.49218C15.1472 3.62895 12.8283 3.51503 10.6697 4.16983C8.51114 4.82463 6.64638 6.20763 5.39317 8.08319C4.13996 9.95875 3.57585 12.2108 3.79695 14.4557C4.01805 16.7005 5.01068 18.7993 6.60571 20.3943C6.99623 20.7848 7.6294 20.7848 8.01992 20.3943C8.41044 20.0038 8.41045 19.3706 8.01992 18.9801C6.75208 17.7122 5.96306 16.044 5.78732 14.2596C5.61157 12.4753 6.05997 10.6852 7.05611 9.19433C8.05225 7.7035 9.5345 6.60419 11.2503 6.08371C12.9661 5.56323 14.8093 5.65378 16.4658 6.33993C18.1223 7.02609 19.4897 8.26539 20.3349 9.84668C21.1801 11.428 21.4509 13.2534 21.1011 15.012C20.7513 16.7705 19.8026 18.3534 18.4165 19.4908C17.0305 20.6283 15.293 21.25 13.5 21.25C12.9477 21.25 12.5 21.6977 12.5 22.25C12.5 22.8023 12.9477 23.25 13.5 23.25C15.7557 23.25 17.9416 22.4679 19.6853 21.0369C21.429 19.6058 22.6226 17.6145 23.0627 15.4021C23.5027 13.1898 23.1621 10.8932 22.0987 8.90388C21.0354 6.91452 19.3152 5.3554 17.2312 4.49218Z" fill="#FF565E"/>
</svg>
